# xmcd
# 
# Track frame offsets:
#     150
#     16312
#     32108
#     51355
#     68897
#     89096
#     104204
#     122102
#     141643
#     155517
#     172187
#     190694
#     202776
# 
# Disc length: 2951
# 
# Revision: 3
# Processed by: cddbd v1.5.2PL0 Copyright (c) Steve Scherf et al.
# Submitted via: fre:ac v1.0.27
# 
DISCID=c50b850d
DTITLE=Alejandro Escovedo - Real Animal
DYEAR=2008
DGENRE=AltCountry
TTITLE0=Always A Friend
TTITLE1=Chelsea Hotel '78
TTITLE2=Sister Lost Soul
TTITLE3=Smoke
TTITLE4=Sensitive Boys
TTITLE5=People (We're Only Gonna Live So Long)
TTITLE6=Golden Bear
TTITLE7=Nuns song
TTITLE8=Real As An Animal
TTITLE9=Hollywood Hills
TTITLE10=Swallows Of San Juan
TTITLE11=Chip n'Tony
TTITLE12=Slow Down
EXTD=YEAR: 2008
EXTT0=01
EXTT1=02
EXTT2=03
EXTT3=04
EXTT4=05
EXTT5=06
EXTT6=07
EXTT7=08
EXTT8=09
EXTT9=10
EXTT10=11
EXTT11=12
EXTT12=13
PLAYORDER=
